<svg xmlns="http://www.w3.org/2000/svg" xmlns:xlink="http://www.w3.org/1999/xlink" viewBox="0 0 64 64"><defs><style>.cls-1{fill:url(#linear-gradient);}</style><linearGradient id="linear-gradient" x1="2.85" y1="32.03" x2="61.2" y2="32.03" gradientUnits="userSpaceOnUse"><stop offset="0" stop-color="#17a6d7" id="id_102"></stop><stop offset="1" stop-color="#4fdb5d" id="id_103"></stop></linearGradient></defs><g id="Layer_32" data-name="Layer 32"><path class="cls-1" d="M60.66,21.47C57,4.94,39.36,5.68,30.18,19.32,25.92,14.69,18.71,11.73,13,13.7a.39.39,0,0,0-.14.05C2.41,17.17.72,31.18,5.11,40.65,9.25,50.78,21.42,59.4,31.34,52.53c4.95,3.3,10.83,2.61,16-.51C56.86,46.57,63.14,32.11,60.66,21.47ZM49.47,11.3c-1,4.94-.1,6.67-2.64,12.49a23,23,0,0,1-4.77,7.32,24.72,24.72,0,0,0-4.24,6,27.77,27.77,0,0,0-6.27-16.24C36.34,13.79,43.5,10,49.47,11.3ZM16.53,51A23.3,23.3,0,0,1,7,39.85C3.21,31.69,4.07,19.82,12.5,16c.71,4.35,0,6,2.32,11.49a21.74,21.74,0,0,0,4.76,7.15A19.57,19.57,0,0,1,24,41.23c2.32,5.3,1.4,6.9,2.28,11.44A13.48,13.48,0,0,1,16.53,51Zm11.64,1.1h0c-.77-4.44,0-6.13-2.36-11.64A21.74,21.74,0,0,0,21,33.28a19.61,19.61,0,0,1-4.38-6.58c-2.3-5.25-1.41-6.84-2.25-11.31,8.46-1.7,15.92,5,19.32,12.83C37.47,36.38,36.61,48.26,28.17,52.06ZM33,51.2a14.49,14.49,0,0,0,1.62-1.94,22.54,22.54,0,0,1-.39,2.56A9.44,9.44,0,0,1,33,51.2ZM56.7,37.91c-3.59,8.37-11.7,16.2-20.61,14.5,1.06-5,.1-6.75,2.68-12.64a23.05,23.05,0,0,1,4.77-7.32,24.83,24.83,0,0,0,5.12-7.86c2.62-6,1.82-7.84,2.72-12.69C60.45,16.08,60.69,29.12,56.7,37.91Z" id="id_101" fill="#000000"></path></g></svg>