<svg xmlns="http://www.w3.org/2000/svg" xml:space="preserve" width="8in" height="8in" style="shape-rendering:geometricPrecision; text-rendering:geometricPrecision; image-rendering:optimizeQuality; fill-rule:evenodd; clip-rule:evenodd" viewBox="0 0 8 8" xmlns:xlink="http://www.w3.org/1999/xlink">
<defs>
<style type="text/css">
   
    .fil1 {fill:black}
    .fil0 {fill:black;fill-rule:nonzero}
   
  </style>
</defs>
<g id="Layer_x0020_1">
<metadata id="CorelCorpID_0Corel-Layer"></metadata>
<g id="_198634456">
<path id="_198635416" class="" d="M2.9135 6.30824c-1.7776,-1.44684 -0.924173,-3.11439 -0.921772,-3.11924l0.071563 0.035311 -0.0716614 -0.0355591c0.0141929,-0.0285984 0.0431929,-0.0449685 0.0731299,-0.0444409l1.46367 0 1.46514 0c0.0334843,0 0.0621575,0.0205787 0.0740827,0.0497717 0.0495512,0.10137 0.800898,1.71495 -0.929846,3.11878l-0.050311 -0.061874 0.0503937 0.0621299c-0.0148346,0.0120315 -0.0326732,0.017874 -0.0503937,0.0178622l0 7.87402e-006 -0.559067 0 -0.559067 0c-0.0217402,0 -0.0414488,-0.00867717 -0.0558661,-0.022748zm-0.799228 -3.00393c-0.113748,0.262429 -0.609126,1.63851 0.883614,2.86667l0.530547 0 0.530547 0c1.49274,-1.22816 0.997374,-2.60423 0.883614,-2.86667l-1.41416 0 -1.41416 0z" fill="#ffffff"></path>
<path id="_198635752" class="" d="M5.14378 3.37439c-0.0438346,0.00535039 -0.0750354,0.0452283 -0.069685,0.089063 0.00535039,0.0438346 0.0452283,0.0750354 0.089063,0.069685 0.00271654,-0.000330709 0.948961,-0.123224 0.888945,0.611961 -0.0607283,0.743972 -0.907035,0.574815 -0.909465,0.574354 -0.0433189,-0.00811024 -0.0850157,0.0204291 -0.093126,0.063748 -0.00811024,0.0433189 0.0204291,0.0850157 0.063748,0.093126 0.00292913,0.000555118 1.02284,0.204693 1.09822,-0.718724 0.0760984,-0.932205 -1.06443,-0.78361 -1.0677,-0.783213z" fill="#ffffff"></path>
<path id="_198635464" class="" d="M2.75164 2.0973c-0.0189803,-0.0396929 -0.0665551,-0.0564803 -0.106248,-0.0375 -0.0396929,0.0189803 -0.0564803,0.0665551 -0.0375,0.106248 0.0210827,0.044063 0.041248,0.0813189 0.0609055,0.11765 0.0860276,0.158988 0.161106,0.297744 -0.00535433,0.458437 -0.0317559,0.0305472 -0.0327362,0.0810551 -0.00218898,0.112811 0.0305472,0.0317559 0.0810551,0.0327362 0.112811,0.00218898 0.253921,-0.245126 0.152067,-0.433362 0.0353543,-0.649059 -0.0203583,-0.037622 -0.0412323,-0.0761929 -0.0577795,-0.110776z" fill="#ffffff"></path>
<path id="_198635608" class="" d="M3.58313 1.57804c0.0320984,-0.0302008 0.0336378,-0.0807165 0.00343701,-0.112815 -0.0302008,-0.0320984 -0.0807165,-0.0336378 -0.112815,-0.00343701 -0.0388858,0.0366772 -0.0865118,0.0901102 -0.124724,0.14937 -0.0310669,0.0481732 -0.0564724,0.101154 -0.0676378,0.154409l-0.00019685 -4.33071e-005c-0.000889764,0.00424409 -0.00141732,0.00848031 -0.00161811,0.0126811 -0.0036063,0.0458976 -0.000437008,0.094815 0.0101732,0.14535 0.0101181,0.0481693 0.0270394,0.0975315 0.0513346,0.146756l0.071563 -0.035311 -0.0717362 0.0354055c0.00405906,0.00822047 0.00933858,0.0154331 0.0155157,0.0215315 0.0363858,0.0430748 0.0756142,0.0832756 0.114823,0.123465 0.0372913,0.0382244 0.0745945,0.0764606 0.105256,0.112409 0.0161693,0.0342205 0.0275157,0.0680315 0.034374,0.100697 0.0071378,0.0340039 0.00938583,0.0670709 0.00714961,0.0983071 -0.00743307,0.0304961 -0.0240472,0.0635315 -0.0445551,0.0953425 -0.0304803,0.0472677 -0.0685748,0.0899882 -0.0997205,0.119358 -0.0320984,0.0302008 -0.0336378,0.0807165 -0.00343701,0.112815 0.0302008,0.0320984 0.0807165,0.0336378 0.112815,0.00343701 0.0388858,-0.0366693 0.0865079,-0.0900984 0.12472,-0.149358 0.0297756,-0.0461772 0.0543465,-0.0967598 0.0661693,-0.147768 0.00155118,-0.00518898 0.00260236,-0.0106142 0.00307874,-0.0162244l-0.0797126 -0.00677559 0.079689 0.00656299c0.0039685,-0.0467283 0.000885827,-0.0966181 -0.00994488,-0.148201 -0.00973228,-0.0463504 -0.0257677,-0.0937953 -0.0486024,-0.141157 -0.00304331,-0.0076063 -0.00731102,-0.014874 -0.0128386,-0.0215079l-0.000259843 0.000216535c-0.0377795,-0.0453346 -0.0787953,-0.087374 -0.119803,-0.129406 -0.0372913,-0.0382205 -0.0745906,-0.0764488 -0.105252,-0.112406 -0.0161693,-0.0342205 -0.0275157,-0.0680354 -0.034374,-0.100693 -0.0071378,-0.034 -0.00937795,-0.0670748 -0.00714567,-0.098311 0.00743307,-0.0304961 0.0240433,-0.0635276 0.0445512,-0.0953307 0.0304803,-0.0472756 0.0685787,-0.0899961 0.0997244,-0.11937z" fill="#ffffff"></path>
<path id="_198635776" class="" d="M4.32417 1.91519c-0.0186378,-0.0398661 -0.0660748,-0.0570748 -0.105941,-0.038437 -0.0398661,0.0186378 -0.0570748,0.0660748 -0.038437,0.105941 0.0220945,0.0469764 0.0450866,0.0909449 0.0673307,0.133488 0.0823661,0.157516 0.153366,0.293307 0.102039,0.47528 -0.00711417,0.0252362 -0.018,0.0522047 -0.0300748,0.0778346 -0.0159803,0.0339213 -0.0338504,0.0650551 -0.0481654,0.0872244 -0.023815,0.0371063 -0.0130433,0.0865 0.024063,0.110315 0.0371063,0.023815 0.0865,0.0130433 0.110315,-0.024063 0.0172717,-0.026748 0.0388465,-0.0643425 0.0581654,-0.10535 0.0155236,-0.0329488 0.0297323,-0.0683819 0.0394449,-0.102835 0.0683622,-0.24237 -0.016311,-0.404307 -0.114535,-0.592154 -0.0213189,-0.0407717 -0.0433543,-0.0829134 -0.0642047,-0.127244z" fill="#ffffff"></path>
<path id="_198634600" class="" d="M2.21193 6.3999c-0.0441811,0 -0.08,0.0358189 -0.08,0.08 0,0.0441811 0.0358189,0.08 0.08,0.08l2.63302 0c0.0441811,0 0.08,-0.0358189 0.08,-0.08 0,-0.0441811 -0.0358189,-0.08 -0.08,-0.08l-2.63302 0z" fill="#ffffff"></path>
</g>
<path class="" d="M4 0c2.20914,0 4,1.79086 4,4 0,2.20914 -1.79086,4 -4,4 -2.20914,0 -4,-1.79086 -4,-4 0,-2.20914 1.79086,-4 4,-4zm0 0.319996c2.03241,0 3.68,1.64759 3.68,3.68 0,2.03241 -1.64759,3.68 -3.68,3.68 -2.03241,0 -3.68,-1.64759 -3.68,-3.68 0,-2.03241 1.64759,-3.68 3.68,-3.68z" id="id_102" fill="#ffffff"></path>
</g>
</svg>